<svg id="Capa_1" enable-background="new 0 0 512.008 512.008" height="512" viewBox="0 0 512.008 512.008" width="512" xmlns="http://www.w3.org/2000/svg"><g><g><path clip-rule="evenodd" d="m298.99 128.91-7.256-63.666-54.849 6.265 7.257 63.665 25.482-20.267z" fill="#fff1d8" fill-rule="evenodd"/></g><g><path clip-rule="evenodd" d="m288.389 235.095 63.125-7.2 15.505-1.758-19.076-167.299-56.209 6.406 7.256 63.666-29.366-14.003-25.482 20.267-7.257-63.665-56.209 6.406 19.048 167.271z" fill="#ffd47b" fill-rule="evenodd"/></g><g><path clip-rule="evenodd" d="m241.761 411.011 217.608-24.803-19.19-168.433-73.16 8.362-15.505 1.757 8.362 73.275-33.816-16.129-29.338 23.329-8.334-73.275-88.665 10.091 14.711 128.975c12.729 8.704 22.536 21.544 27.327 36.851z" fill="#ffd47b" fill-rule="evenodd"/></g><g><path clip-rule="evenodd" d="m359.876 301.17-8.362-73.275-63.125 7.2 8.334 73.275 29.337-23.329z" fill="#fff1d8" fill-rule="evenodd"/></g><g><path clip-rule="evenodd" d="m214.436 374.161-14.711-128.975-19.049-167.271-3.826-33.505c-2.409-21.203-21.741-36.567-42.943-34.157l-38.21 4.337 5.045 44.163 32.569-3.713 16.497 144.679 18.538 162.594c16.894-1.616 33.023 2.948 46.09 11.848z" fill="#cfd3df" fill-rule="evenodd"/></g><g><path clip-rule="evenodd" d="m38.297 65.896 62.445-7.143-5.045-44.163-62.445 7.115c-12.132 1.388-20.948 12.472-19.559 24.604 1.389 12.16 12.444 20.948 24.604 19.587z" fill="#9ea6bf" fill-rule="evenodd"/></g><g><path clip-rule="evenodd" d="m178.097 459.483c15.193-1.729 26.078-15.449 24.349-30.642-1.729-15.165-15.42-26.079-30.613-24.349-15.193 1.729-26.078 15.449-24.349 30.642 1.729 15.165 15.448 26.079 30.613 24.349z" fill="#cfd3df" fill-rule="evenodd"/></g><g><path clip-rule="evenodd" d="m244.51 424.051c-.51-4.507-1.446-8.872-2.75-13.039-4.79-15.307-14.598-28.148-27.325-36.85-13.067-8.901-29.196-13.464-46.09-11.849-.425.028-.879.085-1.304.113-18.991 2.183-35.318 11.735-46.458 25.483-11.423 14.088-17.376 32.57-15.165 52.015 4.365 38.409 39.06 65.99 77.468 61.625 27.297-3.118 49.123-21.543 57.91-45.694 3.573-9.864 4.99-20.664 3.714-31.804zm-72.677-19.559c15.193-1.729 28.884 9.184 30.613 24.349 1.729 15.194-9.156 28.913-24.349 30.642-15.165 1.729-28.884-9.184-30.613-24.349-1.729-15.194 9.155-28.913 24.349-30.642z" fill="#9ea6bf" fill-rule="evenodd"/></g><g><path clip-rule="evenodd" d="m240.797 455.855 225.12-25.653 12.841-1.474c12.132-1.389 20.947-12.444 19.558-24.605-1.389-12.132-12.444-20.948-24.604-19.559l-14.343 1.644-217.608 24.803c1.304 4.167 2.239 8.532 2.75 13.039 1.275 11.141-.142 21.941-3.714 31.805z" fill="#cfd3df" fill-rule="evenodd"/></g><g><path d="m170.702 394.556c-20.631 2.348-35.503 21.059-33.153 41.711 1.139 9.988 6.103 18.939 13.979 25.204 6.733 5.356 14.9 8.196 23.369 8.196 1.438 0 2.883-.082 4.332-.247 20.631-2.349 35.504-21.059 33.154-41.711-2.353-20.629-21.05-35.496-41.681-33.153zm6.262 54.992c-4.68.534-9.292-.792-12.987-3.73-3.695-2.939-6.024-7.136-6.557-11.815-1.103-9.693 5.87-18.475 15.543-19.575.675-.077 1.346-.115 2.01-.115 8.852 0 16.511 6.663 17.536 15.659 1.104 9.693-5.869 18.475-15.545 19.576z"/><path d="m335.897 347.303-60.404 6.888c-5.487.625-9.429 5.581-8.803 11.068.582 5.103 4.907 8.868 9.923 8.868.378 0 .76-.021 1.145-.065l60.404-6.888c5.487-.625 9.429-5.581 8.803-11.068s-5.581-9.435-11.068-8.803z"/><path d="m359.763 432.278c-5.523 0-10 4.477-10 10s4.477 10 10 10h.057c5.523 0 9.972-4.477 9.972-10s-4.506-10-10.029-10z"/><path d="m508.25 402.986c-2.02-17.651-18.022-30.376-35.671-28.357l-4.408.503-18.056-158.488c-.3-2.635-1.635-5.043-3.71-6.694-2.076-1.651-4.723-2.406-7.358-2.109l-63.227 7.208-17.942-157.344c-.3-2.635-1.635-5.043-3.711-6.694-2.076-1.65-4.719-2.407-7.358-2.109l-157.337 17.945-2.686-23.566c-1.467-12.909-7.908-24.498-18.136-32.631-10.225-8.13-22.968-11.801-35.874-10.333l-100.662 11.452c-17.656 2.022-30.377 18.027-28.356 35.675 2.013 17.628 18.004 30.366 35.674 28.388l85.076-9.722 14.907 130.74-41.659 54.539c-1.569 2.054-2.282 4.636-1.989 7.204l14.434 126.526c-11.307 15.615-17.061 35.32-14.718 55.935 2.413 21.229 12.953 40.247 29.68 53.55 14.299 11.373 31.653 17.404 49.661 17.404 3.052 0 6.123-.173 9.201-.523 28.883-3.304 52.442-21.678 63.729-46.357l68.555-7.812c5.487-.625 9.429-5.581 8.803-11.068-.625-5.487-5.573-9.429-11.068-8.803l-60.041 6.842c1.078-6.917 1.277-14.081.444-21.365-.124-1.087-.282-2.165-.448-3.24l206.348-23.528c.052-.005.103-.003.154-.009.058-.007.113-.021.171-.028l14.175-1.616c6.688-.769 12.767 4.062 13.533 10.758.765 6.696-4.062 12.768-10.755 13.534l-74.378 8.476c-5.487.625-9.429 5.581-8.803 11.068.582 5.103 4.907 8.869 9.923 8.869.378 0 .76-.021 1.145-.065l51.747-5.897 3.753 27.143c.698 5.051 5.022 8.708 9.98 8.708.46 0 .926-.031 1.394-.096 5.52-.763 9.375-5.855 8.612-11.375l-3.686-26.665 2.583-.294c17.651-2.023 30.372-18.026 28.355-35.679zm-225.319-326.669 4.08 35.802-13.083-6.239c-3.45-1.645-7.537-1.18-10.529 1.2l-11.365 9.039-4.082-35.813zm-54.849 6.256 6.124 53.733c.412 3.612 2.75 6.715 6.108 8.106 1.234.511 2.534.761 3.826.761 2.225 0 4.426-.742 6.226-2.173l20.593-16.378 23.727 11.314c3.281 1.565 7.153 1.226 10.112-.886 2.959-2.111 4.54-5.662 4.128-9.273l-6.124-53.726 36.338-4.144 16.808 147.405-147.411 16.804-16.8-147.398zm119.813 201.803-17.53-8.361c-3.45-1.646-7.537-1.18-10.529 1.199l-15.216 12.1-5.167-45.432 43.258-4.931zm-310.71-228.418c-6.711.75-12.792-4.087-13.557-10.787-.767-6.694 4.061-12.765 10.753-13.531l52.515-5.975 2.776 24.295zm94.991-10.854-22.632 2.586-2.774-24.285 28.267-3.216c7.6-.864 15.12 1.307 21.166 6.115 6.044 4.807 9.849 11.638 10.712 19.239l22.863 200.58c.006.066.005.131.012.197.008.066.023.129.032.195l12.572 110.298c-8.036-2.941-16.507-4.576-25.158-4.805l-33.989-298.1c-.3-2.636-1.636-5.044-3.712-6.694-2.077-1.653-4.725-2.408-7.359-2.11zm10.508 180.415 14.644 128.437c-10.721 2.42-20.535 6.966-29.056 13.122l-12.178-106.749zm39.074 266.094c-15.93 1.809-31.604-2.687-44.146-12.662-12.543-9.976-20.447-24.237-22.256-40.156-3.736-32.873 19.96-62.675 52.824-66.434 15.92-1.808 31.597 2.689 44.139 12.663 12.543 9.976 20.447 24.237 22.257 40.163 3.758 32.866-19.938 62.665-52.818 66.426zm66.66-91.425c-5.147-11.937-13.188-22.495-23.652-30.816-.292-.232-.595-.445-.889-.672l-13.075-114.711 68.779-7.84 7.205 63.353c.411 3.612 2.75 6.716 6.107 8.108 1.234.511 2.535.762 3.827.762 2.225 0 4.426-.742 6.226-2.173l24.447-19.441 28.177 13.439c3.282 1.565 7.153 1.226 10.113-.885s4.54-5.663 4.128-9.274l-7.229-63.35 68.793-7.842 16.925 148.551z"/></g></g></svg>