<svg width="562" height="359" viewBox="0 0 562 359" fill="none" xmlns="http://www.w3.org/2000/svg">
<path d="M532.935 257.925C520.91 320.993 447.188 342.107 363.885 326.223C280.583 310.34 243.033 216.037 255.058 152.969C267.083 89.9006 307.2 60.3439 390.502 76.2272C473.805 92.1106 544.96 194.857 532.935 257.925Z" fill="#B6FBFF" fill-opacity="0.14"/>
<path d="M36.2148 79.8237H109.906C113.765 79.8237 116.893 76.6962 116.893 72.8364C116.893 68.9766 113.765 65.8491 109.906 65.8491H36.2148C32.356 65.8491 29.2275 68.9766 29.2275 72.8364C29.2275 76.6962 32.3551 79.8237 36.2148 79.8237Z" fill="#1BADB4"/>
<path d="M107.379 113.463H78.269C74.4102 113.463 71.2817 116.59 71.2817 120.45C71.2817 124.31 74.4102 127.437 78.269 127.437H107.379C111.238 127.437 114.366 124.31 114.366 120.45C114.366 116.59 111.238 113.463 107.379 113.463Z" fill="#1BADB4"/>
<path d="M6.9873 161.917H78.269C82.1278 161.917 85.2563 158.79 85.2563 154.93C85.2563 151.07 82.1278 147.943 78.269 147.943H6.9873C3.12845 147.943 0 151.07 0 154.93C0 158.79 3.12845 161.917 6.9873 161.917Z" fill="#1BADB4"/>
<path d="M116.893 285.79C116.893 281.93 113.765 278.803 109.906 278.803H36.2148C32.356 278.803 29.2275 281.93 29.2275 285.79C29.2275 289.65 32.356 292.777 36.2148 292.777H109.906C113.765 292.777 116.893 289.65 116.893 285.79Z" fill="#1BADB4"/>
<path d="M107.379 231.19H78.269C74.4102 231.19 71.2817 234.318 71.2817 238.178C71.2817 242.038 74.4102 245.165 78.269 245.165H107.379C111.238 245.165 114.366 242.038 114.366 238.178C114.366 234.318 111.238 231.19 107.379 231.19Z" fill="#1BADB4"/>
<path d="M85.2563 203.698C85.2563 199.838 82.1278 196.71 78.269 196.71H6.9873C3.12845 196.71 0 199.838 0 203.698C0 207.558 3.12845 210.685 6.9873 210.685H78.269C82.1278 210.685 85.2563 207.558 85.2563 203.698Z" fill="#1BADB4"/>
<path d="M297.686 95.3078C301.546 95.3078 304.673 92.1802 304.673 88.3204V77.655C304.673 73.7952 301.546 70.6677 297.686 70.6677C293.826 70.6677 290.699 73.7952 290.699 77.655V88.3204C290.699 92.1802 293.826 95.3078 297.686 95.3078Z" fill="#1BADB4"/>
<path d="M374.51 102.489C371.78 99.7609 367.357 99.7609 364.628 102.489L357.087 110.03C354.358 112.76 354.358 117.184 357.087 119.912C359.817 122.641 364.24 122.64 366.969 119.912L374.51 112.371C377.238 109.642 377.238 105.218 374.51 102.489Z" fill="#1BADB4"/>
<path d="M388.68 172.326C384.82 172.326 381.692 175.454 381.692 179.314C381.692 183.174 384.82 186.301 388.68 186.301H399.344C403.204 186.301 406.331 183.174 406.331 179.314C406.331 175.454 403.204 172.326 399.344 172.326H388.68Z" fill="#1BADB4"/>
<path d="M366.969 238.714C364.239 235.986 359.815 235.986 357.087 238.714C354.358 241.444 354.358 245.867 357.087 248.596L364.628 256.138C367.359 258.867 371.781 258.866 374.51 256.138C377.239 253.408 377.239 248.985 374.51 246.256L366.969 238.714Z" fill="#1BADB4"/>
<path d="M290.699 270.307V280.972C290.699 284.831 293.826 287.959 297.686 287.959C301.546 287.959 304.673 284.831 304.673 280.972V270.307C304.673 266.447 301.546 263.32 297.686 263.32C293.826 263.32 290.699 266.448 290.699 270.307Z" fill="#1BADB4"/>
<path d="M228.403 238.714L220.862 246.256C218.133 248.986 218.133 253.409 220.862 256.138C223.591 258.867 228.015 258.866 230.743 256.138L238.284 248.596C241.013 245.867 241.013 241.443 238.284 238.714C235.556 235.986 231.132 235.986 228.403 238.714Z" fill="#1BADB4"/>
<path d="M196.027 172.326C192.168 172.326 189.04 175.454 189.04 179.314C189.04 183.174 192.168 186.301 196.027 186.301H206.693C210.552 186.301 213.68 183.174 213.68 179.314C213.68 175.454 210.552 172.326 206.693 172.326H196.027Z" fill="#1BADB4"/>
<path d="M238.285 110.03L230.743 102.489C228.014 99.7609 223.59 99.7609 220.862 102.489C218.133 105.218 218.133 109.642 220.862 112.371L228.404 119.912C231.133 122.641 235.557 122.64 238.285 119.912C241.013 117.184 241.013 112.76 238.285 110.03Z" fill="#1BADB4"/>
<path d="M335.259 179.314C335.259 175.454 332.132 172.327 328.272 172.327H304.673V120.449C304.673 116.589 301.546 113.462 297.686 113.462C293.826 113.462 290.699 116.589 290.699 120.449V179.314C290.699 183.174 293.826 186.301 297.686 186.301H328.272C332.131 186.301 335.259 183.174 335.259 179.314Z" fill="#1BADB4"/>
<path d="M430.177 178.16C434.029 177.927 436.962 174.615 436.728 170.763C432.283 97.4402 371.209 40.0037 297.686 40.0037C220.87 40.0037 158.375 102.498 158.375 179.315C158.375 256.13 220.87 318.625 297.686 318.625C366.505 318.625 425.227 268.203 435.443 200.16C436.016 196.344 433.386 192.786 429.57 192.213C425.763 191.642 422.196 194.268 421.623 198.086C412.446 259.215 359.663 304.651 297.686 304.651C228.576 304.651 172.35 248.426 172.35 179.316C172.35 110.206 228.576 53.9792 297.686 53.9792C363.833 53.9792 418.78 105.649 422.779 171.611C423.012 175.46 426.321 178.384 430.177 178.16V178.16Z" fill="#1BADB4"/>
<path d="M297.685 0C273.107 0 249.027 5.09887 226.864 14.6342H103.581C99.7217 14.6342 96.5933 17.7617 96.5933 21.6215C96.5933 25.4813 99.7217 28.6088 103.581 28.6088H200.576C187.462 37.0495 175.389 47.2305 164.744 58.984C162.154 61.8432 162.372 66.262 165.232 68.8529C168.093 71.4438 172.51 71.2249 175.102 68.3647C206.407 33.799 251.087 13.9746 297.685 13.9746C388.854 13.9746 463.025 88.1453 463.025 179.314C463.025 270.481 388.855 344.653 297.685 344.653C206.517 344.653 132.346 270.482 132.346 179.314C132.346 147.388 141.466 116.402 158.718 89.703C160.812 86.4618 159.882 82.1372 156.641 80.0428C153.4 77.9494 149.075 78.8774 146.98 82.1195C128.263 111.082 118.371 144.691 118.371 179.314C118.371 242.447 151.171 298.059 200.621 330.019H103.581C99.7226 330.019 96.5942 333.146 96.5942 337.006C96.5942 340.866 99.7226 343.993 103.581 343.993H226.768C248.531 353.402 272.508 358.628 297.686 358.628C396.559 358.628 477 278.188 477 179.314C477 80.4397 396.559 0 297.685 0V0Z" fill="#1BADB4"/>
</svg>
