<svg width="460" height="378" viewBox="0 0 460 378" fill="none" xmlns="http://www.w3.org/2000/svg">
<path d="M406.201 263.634L378.058 235.492C375.657 233.091 371.766 233.091 369.366 235.492C366.965 237.892 366.965 241.784 369.366 244.183L373.285 248.102L278.806 342.582L245.102 308.878L339.582 214.399L349.214 224.031C351.615 226.431 355.506 226.431 357.906 224.031C360.307 221.63 360.307 217.738 357.906 215.339L343.962 201.395C332.915 190.067 325.656 177.16 315.43 165.049C327.113 149.359 314.749 126.386 295.288 127.341C295.931 113.676 284.254 101.936 270.544 102.585C271.187 88.9263 259.466 77.1663 245.782 77.8358C246.843 55.2885 218.662 45.147 203.998 61.4316L202.551 59.9844C193.331 50.764 178.327 50.764 169.107 59.9844C164.207 64.8842 161.91 71.4174 162.219 77.8481C148.532 77.1925 136.808 88.8796 137.456 102.6C132.004 102.341 126.483 103.961 121.942 107.446C113.586 104.499 104.45 105.567 96.3591 110.551C86.384 116.695 80.1409 127.382 79.9885 138.523L73.0259 192.409L1.80027 263.634C-0.600089 266.034 -0.600089 269.926 1.80027 272.325L104.971 375.497C106.171 376.698 107.745 377.298 109.317 377.298C110.89 377.298 112.463 376.698 113.663 375.497L175.936 313.225C178.336 310.825 178.336 306.933 175.936 304.533L165.474 294.071C177.219 282.327 189 276.377 203.999 269.601C218.883 276.326 230.883 282.431 242.524 294.071L232.063 304.533C230.91 305.685 230.263 307.249 230.263 308.879C230.263 310.509 230.91 312.073 232.063 313.225L294.335 375.497C295.536 376.697 297.109 377.298 298.682 377.298C300.254 377.298 301.828 376.698 303.028 375.497L406.2 272.326C407.353 271.174 408 269.61 408 267.98C408 266.35 407.353 264.786 406.201 263.634V263.634ZM296.42 139.606C304.377 139.616 310.039 148.273 306.806 155.564C301.867 150.524 296.841 145.567 291.851 140.577C293.375 140.253 294.897 139.93 296.42 139.606V139.606ZM271.665 114.85C279.695 114.86 285.276 123.489 282.053 130.803C276.769 125.639 270.797 120.979 264.118 117.751C266.275 115.851 268.79 114.884 271.665 114.85V114.85ZM104.99 160.44L103.543 158.992C99.1152 154.565 99.1152 147.36 103.543 142.932C105.757 140.719 108.665 139.612 111.573 139.612C114.48 139.612 117.389 140.719 119.602 142.932L121.049 144.379L113.019 152.408L104.99 160.44ZM177.799 68.6761C180.014 66.4626 182.921 65.3555 185.829 65.3555C188.736 65.3555 191.645 66.4626 193.858 68.6761L195.306 70.1234L179.246 86.1834L177.798 84.7362C173.371 80.3083 173.371 73.104 177.799 68.6761V68.6761ZM149.721 101.458C149.721 98.4253 150.902 95.5734 153.047 93.4288C155.262 91.2152 158.169 90.1081 161.077 90.1081C163.985 90.1081 166.893 91.2152 169.107 93.4288L170.554 94.876L162.524 102.906L154.494 110.935L153.047 109.488C150.902 107.343 149.721 104.491 149.721 101.458ZM136.324 114.86C139.232 114.86 142.141 115.967 144.354 118.181L145.801 119.628L129.741 135.688L128.294 134.241C123.866 129.813 123.866 122.608 128.294 118.181C130.509 115.966 133.416 114.86 136.324 114.86ZM102.805 121.017C105.154 119.571 109.233 117.716 114.08 118.198C113.024 121.145 112.566 124.26 112.714 127.353C104.818 126.974 97.0024 130.733 92.3787 137.151C93.0147 130.807 96.959 124.618 102.805 121.017V121.017ZM109.317 362.459L14.8387 267.98L26.0235 256.795L120.502 351.274L109.317 362.459ZM231.392 268.48C227.057 265.786 222.457 263.512 217.682 261.705C223.803 257.298 228.973 251.862 234.283 246.553C236.684 244.152 236.684 240.26 234.283 237.861C231.882 235.46 227.991 235.46 225.591 237.861C218.136 245.316 210.853 252.531 201.265 257.296C184.468 265.696 170.301 271.86 156.784 285.378L104.523 233.117C102.123 230.717 98.2309 230.717 95.8314 233.117C93.431 235.518 93.431 239.41 95.8314 241.809L162.9 308.877L129.196 342.582L34.7152 248.103L68.4186 214.4L74.5043 220.485C76.9047 222.886 80.7965 222.886 83.1961 220.485C85.5964 218.085 85.5964 214.193 83.1961 211.794L77.1104 205.708L83.1985 199.62C84.159 198.659 84.7737 197.408 84.9482 196.061L89.635 159.79C91.8739 165.377 96.487 169.322 100.632 173.467C103.036 175.871 106.983 175.833 109.336 173.479L214.141 68.6729C224.383 58.4314 240.479 74.4619 230.204 84.7362C229.004 85.9359 228.404 87.5094 228.404 89.082C228.404 90.6547 229.004 92.2282 230.204 93.4279C232.605 95.8283 236.496 95.8283 238.896 93.4279C249.257 83.0676 265.313 99.1285 254.954 109.485C253.754 110.685 253.154 112.259 253.154 113.831C253.154 112.411 204.328 113.074 200.378 113.074C173.621 113.074 169.178 152.703 195.62 157.863L226.096 166.889C230.856 168.297 235.23 170.9 238.746 174.416L263.891 199.561L246.148 217.304C243.746 219.704 243.746 223.596 246.147 225.996C248.547 228.396 252.439 228.396 254.839 225.996L276.929 203.907C278.082 202.754 278.729 201.191 278.729 199.561C278.729 197.931 278.082 196.367 276.929 195.215L247.439 165.725C242.478 160.763 236.304 157.089 229.587 155.103L198.81 145.987C187.471 142.632 186.407 125.368 200.379 125.368H244.05C255.912 125.368 266.058 132.166 274.165 140.274C274.165 140.274 300.823 167.041 302.626 169.058C313.132 180.742 319.854 194.667 330.891 205.704L251.218 285.377C245.026 279.187 238.887 273.135 231.392 268.48V268.48ZM298.683 362.459L287.499 351.275L381.978 256.796L393.163 267.98L298.683 362.459Z" fill="#1BADB4"/>
<path d="M204 24.8583C207.395 24.8583 210.146 22.1064 210.146 18.712V6.14636C210.146 2.75193 207.395 0 204 0C200.605 0 197.854 2.75193 197.854 6.14636V18.712C197.854 22.1064 200.605 24.8583 204 24.8583Z" fill="#1BADB4"/>
<path d="M169.34 27.1309C170.35 29.4395 172.606 30.8163 174.974 30.8163C175.796 30.8163 176.632 30.6499 177.434 30.3C180.544 28.9396 181.962 25.3157 180.602 22.2056L175.567 10.6931C174.206 7.58303 170.583 6.16363 167.473 7.52484C164.362 8.88524 162.944 12.5091 164.304 15.6192L169.34 27.1309Z" fill="#1BADB4"/>
<path d="M146.588 46.2689C147.771 47.3621 149.267 47.9022 150.759 47.9022C152.413 47.9022 154.062 47.2384 155.274 45.9288C157.579 43.4367 157.426 39.5481 154.934 37.2428L145.708 28.7116C143.215 26.4063 139.327 26.5596 137.022 29.0517C134.717 31.5439 134.87 35.4325 137.362 37.7378L146.588 46.2689Z" fill="#1BADB4"/>
<path d="M230.566 30.2992C231.368 30.6499 232.203 30.8154 233.025 30.8154C235.394 30.8154 237.651 29.4387 238.66 27.1301L243.696 15.6176C245.055 12.5075 243.637 8.8836 240.526 7.52403C237.419 6.16527 233.793 7.58221 232.432 10.6931L227.397 22.2056C226.037 25.3149 227.456 28.9388 230.566 30.2992V30.2992Z" fill="#1BADB4"/>
<path d="M257.241 47.9022C258.733 47.9022 260.229 47.3621 261.412 46.2689L270.639 37.7378C273.131 35.4333 273.284 31.5447 270.979 29.0517C268.674 26.5596 264.785 26.4063 262.293 28.7116L253.066 37.2428C250.574 39.5472 250.42 43.4358 252.726 45.9288C253.938 47.2384 255.587 47.9022 257.241 47.9022V47.9022Z" fill="#1BADB4"/>
<path d="M130.836 316.254C134.558 315.374 136.862 311.643 135.983 307.921C135.103 304.199 131.372 301.895 127.65 302.775C123.928 303.655 121.624 307.385 122.504 311.107C123.383 314.83 127.114 317.134 130.836 316.254Z" fill="#1BADB4"/>
<path d="M430.935 279.925C418.91 342.993 345.188 364.107 261.885 348.223C178.583 332.34 141.033 238.037 153.058 174.969C165.083 111.901 205.2 82.3439 288.502 98.2272C371.805 114.111 442.96 216.857 430.935 279.925Z" fill="#B6FBFF" fill-opacity="0.14"/>
</svg>
