<svg width="512" height="512" viewBox="0 0 512 512" fill="none" xmlns="http://www.w3.org/2000/svg">
<path d="M152 160V166.4C152 172.8 155.2 178.4 160.8 180.8L184 192V144H168C159.2 144 152 151.2 152 160Z" fill="#FFD1A7"/>
<path d="M344 144H328V192L351.2 180.8C356.8 178.4 360 172.8 360 166.4V160C360 151.2 352.8 144 344 144Z" fill="#FFD1A7"/>
<path d="M388.8 300L280 256H232L123.2 300C92 312 72 341.6 72 374.4V488H440V374.4C440 341.6 420 312 388.8 300Z" fill="#1B4666"/>
<path d="M312 336L364 289.6L280 256H256V280L312 336Z" fill="#102E42"/>
<path d="M200 336L148 289.6L232 256H256V280L200 336Z" fill="#102E42"/>
<path d="M176 120V188.8C176 224.8 197.6 256.8 231.2 270.4L238.4 272.8C249.6 277.6 262.4 277.6 274.4 272.8L281.6 270.4C315.2 256.8 336.8 224.8 336.8 188.8V120H176Z" fill="#FFDEC0"/>
<path d="M176 120L181.6 128C208.8 169.6 264.8 180 305.6 152.8C315.2 146.4 324 137.6 330.4 128L336 120H176Z" fill="#1B4666"/>
<path d="M338.4 37.6L258.4 24C256.8 24 255.2 24 252.8 24L172.8 37.6C164.8 39.2 159.2 45.6 159.2 53.6V76.8C159.2 79.2 159.2 80.8 160 82.4L176 120H336L351.2 83.2C352 80.8 352 79.2 352 76.8V53.6C352 45.6 346.4 39.2 338.4 37.6V37.6Z" fill="#102E42"/>
<path d="M256 88C264.837 88 272 80.8366 272 72C272 63.1634 264.837 56 256 56C247.163 56 240 63.1634 240 72C240 80.8366 247.163 88 256 88Z" fill="#DDAD6F"/>
<path d="M232 304V432L256 456L280 432V304H232Z" fill="#F7D289"/>
<path d="M256 280C269.6 280 280 290.4 280 304C280 317.6 269.6 328 256 328C242.4 328 232 317.6 232 304C232 290.4 242.4 280 256 280Z" fill="#DDAD6F"/>
<path d="M152 400H168V488H152V400Z" fill="#102E42"/>
<path d="M152 360H168V376H152V360Z" fill="#E0D0B3"/>
<path d="M184 360H208V376H184V360Z" fill="#E0D0B3"/>
<path d="M344 400H360V488H344V400Z" fill="#102E42"/>
<path d="M352 352H440C448.8 352 456 359.2 456 368V472C456 480.8 448.8 488 440 488H352C343.2 488 336 480.8 336 472V368C336 359.2 343.2 352 352 352Z" fill="#2B2B2B"/>
<path d="M424 488H408V292C408 285.6 402.4 280 396 280C389.6 280 384 285.6 384 292V488H368V292C368 276.8 380.8 264 396 264C411.2 264 424 276.8 424 292V488Z" fill="#3F3F3F"/>
</svg>
