<svg height="512" viewBox="0 0 512 512" width="512" xmlns="http://www.w3.org/2000/svg"><g id="Flat"><path d="m464 208v216l-208 64-208-64v-216l208-64z" fill="#f8bc1e"/><path d="m464 208-208 64v216l208-64z" fill="#f79726"/><path d="m48 208 208 64v216l-208-64z" fill="#f5a922"/><g fill="#e8732d"><path d="m359.63 413.538h16.74v16h-16.74z" transform="matrix(.956 -.294 .294 .956 -107.687 126.852)"/><path d="m391.63 403.692h16.74v16h-16.74z" transform="matrix(.956 -.294 .294 .956 -103.377 135.826)"/><path d="m423.63 393.846h16.74v16h-16.74z" transform="matrix(.956 -.294 .294 .956 -99.067 144.801)"/><path d="m152 418.091h16v16.74h-16z" transform="matrix(.294 -.956 .956 .294 -294.656 453.976)"/><path d="m184 427.938h16v16.74h-16z" transform="matrix(.294 -.956 .956 .294 -281.477 491.511)"/><path d="m216 437.784h16v16.74h-16z" transform="matrix(.294 -.956 .956 .294 -268.299 529.047)"/></g><path d="m336 104c0 72-80 128-80 128s-80-56-80-128a80 80 0 0 1 160 0z" fill="#eb5849"/><path d="m112 306.462 80 24.615v-40l-80-24.615z" fill="#e8732d"/><path d="m400 306.462-80 24.615v-40l80-24.615z" fill="#e8732d"/><circle cx="256" cy="104" fill="#e3e4e2" r="40"/></g></svg>