<svg width="512" height="512" viewBox="0 0 512 512" fill="none" xmlns="http://www.w3.org/2000/svg">
<path d="M344 44H312C307.582 44 304 49.373 304 56V112C304 118.627 307.582 124 312 124H344C348.418 124 352 118.627 352 112V56C352 49.373 348.418 44 344 44Z" fill="url(#paint0_linear)"/>
<path d="M440 164C437.627 164 435.307 163.296 433.333 161.977C431.36 160.659 429.822 158.785 428.914 156.592C428.006 154.399 427.768 151.987 428.231 149.659C428.694 147.331 429.837 145.193 431.515 143.515L455.515 119.515C456.626 118.386 457.949 117.488 459.409 116.873C460.869 116.257 462.436 115.937 464.02 115.931C465.604 115.925 467.174 116.232 468.639 116.835C470.103 117.438 471.434 118.326 472.554 119.446C473.674 120.566 474.562 121.897 475.165 123.361C475.768 124.826 476.075 126.396 476.069 127.98C476.062 129.564 475.742 131.131 475.127 132.591C474.512 134.051 473.614 135.374 472.485 136.485L448.485 160.485C447.372 161.601 446.049 162.486 444.593 163.089C443.137 163.692 441.576 164.002 440 164V164Z" fill="#A6A6B9"/>
<path d="M216 164C214.424 164.002 212.863 163.692 211.407 163.089C209.951 162.486 208.628 161.601 207.515 160.485L183.515 136.485C182.386 135.374 181.488 134.051 180.873 132.591C180.257 131.131 179.937 129.564 179.931 127.98C179.925 126.396 180.232 124.826 180.835 123.361C181.438 121.897 182.326 120.566 183.446 119.446C184.566 118.326 185.897 117.438 187.361 116.835C188.826 116.232 190.396 115.925 191.98 115.931C193.564 115.937 195.131 116.257 196.591 116.873C198.051 117.488 199.374 118.386 200.485 119.515L224.485 143.515C226.163 145.193 227.306 147.331 227.769 149.659C228.232 151.987 227.994 154.399 227.086 156.592C226.178 158.785 224.64 160.659 222.667 161.977C220.693 163.296 218.373 164 216 164Z" fill="#A6A6B9"/>
<path d="M328 452C427.411 452 508 371.411 508 272C508 172.589 427.411 92 328 92C228.589 92 148 172.589 148 272C148 371.411 228.589 452 328 452Z" fill="url(#paint1_linear)"/>
<path d="M328 408C403.111 408 464 347.111 464 272C464 196.889 403.111 136 328 136C252.889 136 192 196.889 192 272C192 347.111 252.889 408 328 408Z" fill="url(#paint2_linear)"/>
<path d="M368 12H288C281.373 12 276 17.3726 276 24V48C276 54.6274 281.373 60 288 60H368C374.627 60 380 54.6274 380 48V24C380 17.3726 374.627 12 368 12Z" fill="url(#paint3_linear)"/>
<path d="M321.272 165.869C313.91 179.66 321.272 274.965 321.272 274.965C321.272 276.3 321.833 277.581 322.832 278.525C323.831 279.47 325.185 280 326.598 280H442C442 217.068 328.633 152.078 321.272 165.869Z" fill="#CDDEDF"/>
<path d="M320.744 172.756C314.57 185.715 320.744 275.269 320.744 275.269C320.744 276.523 321.215 277.727 322.052 278.614C322.89 279.502 324.026 280 325.211 280H422C422 220.865 326.918 159.797 320.744 172.756Z" fill="#E9F7F8"/>
<path d="M136 212H56C52.8174 212 49.7652 210.736 47.5147 208.485C45.2643 206.235 44 203.183 44 200C44 196.817 45.2643 193.765 47.5147 191.515C49.7652 189.264 52.8174 188 56 188H136C139.183 188 142.235 189.264 144.485 191.515C146.736 193.765 148 196.817 148 200C148 203.183 146.736 206.235 144.485 208.485C142.235 210.736 139.183 212 136 212V212Z" fill="#1CC7CF"/>
<path d="M120 308H40C36.8174 308 33.7652 306.736 31.5147 304.485C29.2643 302.235 28 299.183 28 296C28 292.817 29.2643 289.765 31.5147 287.515C33.7652 285.264 36.8174 284 40 284H120C123.183 284 126.235 285.264 128.485 287.515C130.736 289.765 132 292.817 132 296C132 299.183 130.736 302.235 128.485 304.485C126.235 306.736 123.183 308 120 308Z" fill="#6A6683"/>
<path d="M128 356H72C68.8174 356 65.7652 354.736 63.5147 352.485C61.2643 350.235 60 347.183 60 344C60 340.817 61.2643 337.765 63.5147 335.515C65.7652 333.264 68.8174 332 72 332H128C131.183 332 134.235 333.264 136.485 335.515C138.736 337.765 140 340.817 140 344C140 347.183 138.736 350.235 136.485 352.485C134.235 354.736 131.183 356 128 356Z" fill="#1BADB4"/>
<path d="M120 260H16C12.8174 260 9.76516 258.736 7.51472 256.485C5.26428 254.235 4 251.183 4 248C4 244.817 5.26428 241.765 7.51472 239.515C9.76516 237.264 12.8174 236 16 236H120C123.183 236 126.235 237.264 128.485 239.515C130.736 241.765 132 244.817 132 248C132 251.183 130.736 254.235 128.485 256.485C126.235 258.736 123.183 260 120 260Z" fill="#1BADB4"/>
<defs>
<linearGradient id="paint0_linear" x1="298.788" y1="113.212" x2="357.212" y2="54.788" gradientUnits="userSpaceOnUse">
<stop offset="0.015" stop-color="#0E858B"/>
<stop offset="1" stop-color="#0E858B"/>
</linearGradient>
<linearGradient id="paint1_linear" x1="200.78" y1="399.22" x2="455.22" y2="144.78" gradientUnits="userSpaceOnUse">
<stop stop-color="#0E858B"/>
<stop offset="1" stop-color="#1CC7CF"/>
</linearGradient>
<linearGradient id="paint2_linear" x1="231.878" y1="368.122" x2="424.122" y2="175.878" gradientUnits="userSpaceOnUse">
<stop stop-color="#635F7C"/>
<stop offset="1" stop-color="#736F8C"/>
</linearGradient>
<linearGradient id="paint3_linear" x1="293.515" y1="70.485" x2="362.485" y2="1.515" gradientUnits="userSpaceOnUse">
<stop offset="0.011" stop-color="#1BADB4"/>
<stop offset="1" stop-color="#1BADB4"/>
</linearGradient>
</defs>
</svg>
