<svg height="512" viewBox="0 0 512 512" width="512" xmlns="http://www.w3.org/2000/svg"><g id="Flat"><path d="m479.994 304a7.976 7.976 0 0 1 -3.572-.847l-220.422-120.153-220.422 120.155a8 8 0 1 1 -7.156-14.31l224-121.94a8 8 0 0 1 7.156 0l224 121.94a8 8 0 0 1 -3.584 15.155z" fill="#78462f"/><path d="m24 296h464v192h-464z" fill="#c7483c"/><path d="m256 200a24.027 24.027 0 0 1 -24-24v-16h16v16a8 8 0 0 0 16 0v-4.687a19.187 19.187 0 0 0 -5.657-13.656 35.082 35.082 0 0 1 -10.343-24.97v-12.687h16v12.687a19.187 19.187 0 0 0 5.657 13.656 35.082 35.082 0 0 1 10.343 24.97v4.687a24.027 24.027 0 0 1 -24 24z" fill="#dfdfdd"/><path d="m256 136a24.028 24.028 0 0 1 -24-24v-96h16v96a8 8 0 0 0 16 0v-96h16v96a24.028 24.028 0 0 1 -24 24z" fill="#dfdfdd"/><path d="m24 296h176v192h-176z" fill="#d65246"/><path d="m104 296h16v192h-16z" fill="#ba4339"/><g fill="#b23b30"><path d="m416 320h16v144h-16z"/><path d="m384 320h16v144h-16z"/><path d="m352 320h16v144h-16z"/><path d="m320 320h16v144h-16z"/><path d="m288 320h16v144h-16z"/><path d="m256 320h16v144h-16z"/><path d="m448 320h16v144h-16z"/><path d="m224 320h16v16h-16z"/><path d="m224 352h16v112h-16z"/></g><path d="m24 320h24v16h-24z" fill="#df6257"/><path d="m24 448h24v16h-24z" fill="#df6257"/><path d="m176 320h24v16h-24z" fill="#df6257"/><path d="m176 448h24v16h-24z" fill="#df6257"/><rect fill="#ffb431" height="80" rx="24" width="48" x="232" y="64"/><circle cx="256" cy="88" fill="#f9a40f" r="8"/><circle cx="256" cy="120" fill="#f9a40f" r="8"/><path d="m290.747 183.873a23.866 23.866 0 0 1 -6.51 14.52l-26.677-14.543-1.56-.85-1.56.85a8.013 8.013 0 0 1 -6.44-7.85v-6.69l4.42-2.41a8.049 8.049 0 0 1 7.16 0l4.31 2.35z" fill="#78462f"/></g></svg>