<svg width="512" height="512" viewBox="0 0 512 512" fill="none" xmlns="http://www.w3.org/2000/svg">
<path d="M154.527 315.063L84.7461 470.528C82.3391 475.889 86.7041 481.826 92.5381 481.127L131.636 476.453L154.168 508.764C157.528 513.582 164.858 512.894 167.263 507.535L237.91 350.137L154.527 315.063Z" fill="#8D8EA1"/>
<path d="M357.473 315.063L427.254 470.528C429.661 475.889 425.296 481.826 419.462 481.127L380.364 476.453L357.831 508.764C354.471 513.582 347.141 512.894 344.736 507.535L274.089 350.137L357.473 315.063Z" fill="#65617D"/>
<path d="M427.255 470.528L378.152 361.134L376.515 357.486C376.515 357.486 366.786 361.134 359.421 374.7C355.888 381.207 350.422 385.994 346.79 388.686C344.656 390.269 343.91 393.114 344.996 395.539L381.319 476.569L419.461 481.129C425.297 481.826 429.661 475.89 427.255 470.528Z" fill="#8D8EA1"/>
<path d="M154.527 315.063L84.7461 470.528C82.3391 475.889 86.7041 481.825 92.5381 481.127L130.68 476.567L165.858 398.093C167.723 393.932 172.458 392.206 176.774 393.68C180.667 395.009 184.784 395.725 188.988 395.725C190.983 395.725 192.997 395.568 194.97 395.257L216.103 391.932C216.18 391.93 216.253 391.927 216.323 391.927C216.968 391.927 217.339 392.042 217.667 392.242L218.723 392.885L237.91 350.136L154.527 315.063Z" fill="#65617D"/>
<path d="M448.486 206.09L437.331 224.385C434.815 228.512 433.845 233.4 434.596 238.176L437.921 259.309C439.111 266.875 435.963 274.472 429.768 278.977L412.476 291.555C408.561 294.403 405.786 298.549 404.648 303.254L399.613 324.06C397.814 331.491 392.013 337.292 384.582 339.09L363.777 344.124C359.072 345.262 354.924 348.038 352.077 351.952L339.503 369.239C334.997 375.434 327.4 378.582 319.833 377.392L298.708 374.067C293.932 373.315 289.044 374.284 284.915 376.802L266.623 387.956C260.101 391.933 251.903 391.933 245.382 387.956L227.087 376.801C222.96 374.285 218.072 373.315 213.296 374.066L192.163 377.391C184.597 378.581 177 375.433 172.495 369.238L159.917 351.946C157.069 348.031 152.923 345.256 148.218 344.118L127.412 339.083C119.981 337.284 114.18 331.483 112.382 324.052L107.348 303.247C106.21 298.542 103.434 294.394 99.52 291.547L82.232 278.971C76.037 274.465 72.889 266.868 74.079 259.301L77.404 238.176C78.156 233.4 77.187 228.512 74.669 224.383L63.513 206.09C59.536 199.568 59.536 191.37 63.513 184.849L74.668 166.554C77.184 162.427 78.154 157.539 77.403 152.763L74.078 131.63C72.888 124.064 76.036 116.467 82.231 111.962L99.523 99.384C103.438 96.536 106.213 92.39 107.351 87.685L112.386 66.879C114.185 59.448 119.986 53.647 127.417 51.849L148.222 46.815C152.927 45.677 157.075 42.901 159.922 38.987L172.497 21.7C177.003 15.505 184.6 12.357 192.167 13.547L213.292 16.872C218.068 17.624 222.956 16.655 227.085 14.137L245.377 2.98299C251.899 -0.994006 260.097 -0.994006 266.618 2.98299L284.914 14.138C289.041 16.654 293.929 17.624 298.705 16.873L319.838 13.548C327.404 12.358 335.001 15.506 339.506 21.701L352.084 38.993C354.932 42.908 359.078 45.683 363.783 46.821L384.589 51.856C392.02 53.655 397.821 59.456 399.619 66.887L404.653 87.692C405.791 92.397 408.567 96.545 412.481 99.392L429.768 111.966C435.963 116.472 439.111 124.069 437.921 131.636L434.596 152.761C433.844 157.537 434.813 162.425 437.331 166.554L448.485 184.846C452.463 191.371 452.463 199.568 448.486 206.09Z" fill="#1BADB4"/>
<path d="M138.432 154.773C138.432 100.551 158.768 51.099 192.19 13.552L192.169 13.549C184.602 12.357 177.005 15.506 172.5 21.701L159.926 38.988C157.078 42.903 152.931 45.678 148.226 46.816L127.421 51.85C119.99 53.647 114.189 59.449 112.39 66.88L107.355 87.686C106.217 92.391 103.441 96.538 99.527 99.385L82.234 111.963C76.04 116.468 72.891 124.065 74.081 131.631L77.406 152.763C78.158 157.539 77.188 162.426 74.671 166.554L63.514 184.849C59.537 191.371 59.537 199.569 63.514 206.09L74.668 224.382C77.186 228.51 78.154 233.399 77.403 238.175L74.078 259.3C72.886 266.867 76.035 274.464 82.23 278.969L99.517 291.543C103.432 294.391 106.207 298.538 107.345 303.243L112.379 324.048C114.176 331.479 119.978 337.28 127.409 339.079L148.215 344.114C152.92 345.252 157.067 348.028 159.914 351.942L172.49 369.234C176.996 375.428 184.592 378.577 192.158 377.387L213.29 374.062C218.066 373.31 222.953 374.279 227.082 376.797L245.378 387.952C251.901 391.929 260.098 391.929 266.619 387.952L284.911 376.798C289.039 374.28 293.928 373.312 298.704 374.063L319.83 377.388C327.397 378.579 334.994 375.431 339.499 369.236L341.091 367.047C228.299 361.893 138.432 268.839 138.432 154.773Z" fill="#0E858B"/>
<path d="M256.006 340.17C335.922 340.17 400.706 275.386 400.706 195.47C400.706 115.554 335.922 50.77 256.006 50.77C176.09 50.77 111.306 115.554 111.306 195.47C111.306 275.386 176.09 340.17 256.006 340.17Z" fill="#1CC7CF"/>
<path d="M289.774 266.182C236.519 257.685 193.784 214.95 185.287 161.695C182.294 142.93 183.512 124.838 188.071 108.118C190.321 99.869 180.518 93.561 174.005 99.1C143.642 124.918 125.606 164.77 130.058 208.678C136.03 267.588 183.88 315.437 242.789 321.409C286.697 325.861 326.55 307.826 352.367 277.462C357.905 270.948 351.598 261.146 343.349 263.396C326.631 267.958 308.539 269.176 289.774 266.182Z" fill="#1BADB4"/>
<path d="M256 256.311L203.36 285.777C197.883 288.843 191.331 284.081 192.554 277.926L204.311 218.756L160.02 177.798C155.412 173.536 157.915 165.833 164.147 165.094L224.054 157.991L249.321 103.212C251.949 97.513 260.05 97.513 262.679 103.212L287.946 157.991L347.853 165.094C354.085 165.833 356.588 173.536 351.98 177.798L307.689 218.756L319.446 277.926C320.669 284.081 314.116 288.843 308.64 285.777L256 256.311Z" fill="#E9F7F8"/>
<path d="M255.87 98.973C253.233 99.02 250.613 100.41 249.321 103.211L224.054 157.991L164.147 165.094C157.915 165.833 155.412 173.536 160.02 177.797L204.311 218.756L192.554 277.926C191.331 284.081 197.884 288.843 203.36 285.777L211.692 281.114L225.815 216.542C226.459 213.596 225.7 210.518 223.76 208.209L208.8 190.412C206.273 187.407 207.755 182.795 211.559 181.824L235.44 175.726C239.089 174.794 241.871 171.839 242.582 168.141L255.87 98.973Z" fill="#CDDEDF"/>
<path d="M317.097 284.794L288.042 252.51C283.262 247.199 275.471 245.843 269.178 249.226L256 256.31L308.64 285.776C311.633 287.452 314.905 286.744 317.097 284.794Z" fill="#E0E0E0"/>
</svg>
