<svg width="513" height="513" viewBox="0 0 513 513" fill="none" xmlns="http://www.w3.org/2000/svg">
<g clip-path="url(#clip0)">
<path d="M418.258 249.103L405.252 143.45L380.88 146.45L380.89 146.433L333.64 119.842C328.6 117.006 322.816 115.772 317.057 116.304L242.451 123.204C233.28 124.052 225.085 129.285 220.458 137.249L167.874 227.757C163.991 234.44 167.039 243.011 174.27 245.742L176.421 246.554C180.559 248.117 184.812 249.022 189.063 249.376L182.4 255.179L169.07 266.793L131.157 299.133C124.408 305.012 123.707 315.242 129.586 321.991L133.432 326.396C140.982 335.054 154.123 335.953 162.797 328.401L177.287 345.021C181.998 350.431 188.9 352.824 195.531 352.008C199.516 351.518 203.404 349.866 206.651 347.026L221.125 363.647C225.853 369.071 232.754 371.448 239.385 370.632C243.37 370.141 247.259 368.505 250.507 365.666L258.373 372.464C265.925 381.137 279.081 382.034 287.755 374.482L298.448 365.153L388.344 295.141L388.441 295.052L423.909 295.017L418.258 249.103Z" fill="#FFBBBB"/>
<path d="M379.731 267.833L379.634 267.922L289.738 337.934L279.045 347.263C270.372 354.815 257.215 353.918 249.663 345.245L241.797 338.447C238.549 341.286 234.659 342.923 230.675 343.413C224.044 344.229 217.144 341.852 212.415 336.428L197.941 319.807C194.693 322.646 190.805 324.298 186.821 324.789C180.19 325.605 173.288 323.213 168.577 317.802L154.087 301.182C146.661 307.648 135.969 307.9 128.306 302.409C124.376 308.335 124.69 316.367 129.589 321.991L133.435 326.396C140.985 335.054 154.126 335.953 162.8 328.401L177.29 345.021C182.001 350.431 188.903 352.824 195.534 352.008C199.519 351.518 203.406 349.866 206.654 347.026L221.128 363.648C225.856 369.072 232.757 371.449 239.388 370.633C243.373 370.142 247.262 368.506 250.51 365.667L258.376 372.465C265.928 381.138 279.084 382.035 287.758 374.483L298.451 365.154L388.347 295.142L388.444 295.053L423.912 295.018L419.988 263.142L379.731 267.833Z" fill="#E2ACAB"/>
<path d="M396.101 313.533L347.936 272.003L334.542 260.463L324.958 252.209L283.751 216.689L288.51 176.179C290.12 162.478 281.495 149.651 268.199 145.972L178.374 121.117C168.87 118.487 158.825 122.897 154.329 131.674L143.033 153.724L94.5451 150.433L82.1251 256.157L76.7271 302.102L123.925 305.241L124.023 305.33L222.625 390.323L233.37 399.593C242.085 407.097 255.236 406.127 262.74 397.412L277.12 380.726C280.383 383.547 284.282 385.162 288.27 385.631C294.905 386.411 301.793 383.995 306.491 378.545L320.873 361.844C324.136 364.665 328.033 366.296 332.021 366.764C338.656 367.544 345.545 365.113 350.226 359.676L364.623 342.976C373.338 350.48 386.474 349.508 393.976 340.808L397.798 336.381C403.64 329.601 402.882 319.375 396.101 313.533Z" fill="#D79795"/>
<path d="M396.101 313.533L381.43 300.883C386.198 307.206 386.1 316.201 380.719 322.447L376.662 327.146C368.698 336.381 354.754 337.413 345.502 329.447L330.218 347.175C325.249 352.946 317.936 355.526 310.892 354.699C306.659 354.202 302.522 352.471 299.058 349.476L283.79 367.206C278.803 372.991 271.492 375.555 264.448 374.728C260.215 374.231 256.076 372.516 252.612 369.521L237.346 387.235C234.47 390.576 230.807 392.827 226.872 393.987L233.371 399.594C242.086 407.098 255.237 406.128 262.741 397.413L277.121 380.727C280.384 383.548 284.283 385.163 288.271 385.632C294.906 386.411 301.794 383.996 306.492 378.546L320.874 361.845C324.137 364.666 328.034 366.297 332.022 366.765C338.657 367.545 345.546 365.114 350.227 359.677L364.624 342.977C373.339 350.481 386.475 349.509 393.977 340.809L397.799 336.382C403.64 329.601 402.882 319.375 396.101 313.533Z" fill="#C0817F"/>
<path d="M369.5 337.416L343.108 314.66C339.973 311.956 335.236 312.306 332.53 315.443C329.825 318.58 330.176 323.316 333.313 326.021L359.658 348.737L364.624 342.977C366.606 344.684 368.823 345.929 371.144 346.768C372.857 343.719 372.25 339.787 369.5 337.416Z" fill="#C0817F"/>
<path d="M327.303 365.627C329.11 362.562 328.531 358.553 325.741 356.147L302.033 335.706C298.896 333.002 294.161 333.352 291.455 336.489C288.75 339.626 289.101 344.362 292.238 347.067L315.946 367.508C315.956 367.516 315.966 367.523 315.976 367.531L320.874 361.843C322.827 363.532 325.011 364.785 327.303 365.627Z" fill="#C0817F"/>
<path d="M126.385 305.135L120.672 312.679C114.451 320.894 116.067 332.597 124.282 338.819C132.497 345.04 144.2 343.424 150.422 335.209L156.135 327.665C162.356 319.45 160.74 307.747 152.525 301.525C144.31 295.304 132.606 296.92 126.385 305.135Z" fill="#FFBBBB"/>
<path d="M161.181 321.002L150.422 335.209C144.201 343.424 145.817 355.127 154.032 361.349C162.247 367.57 173.95 365.954 180.172 357.739L190.931 343.532C197.152 335.317 195.536 323.614 187.321 317.392C179.105 311.171 167.402 312.787 161.181 321.002Z" fill="#FFBBBB"/>
<path d="M194.834 338.377L180.171 357.739C173.95 365.954 175.566 377.657 183.781 383.879C191.996 390.1 203.699 388.484 209.921 380.269L224.584 360.907C230.805 352.692 229.189 340.989 220.974 334.767C212.759 328.545 201.056 330.162 194.834 338.377Z" fill="#FFBBBB"/>
<path d="M225.435 359.783L209.921 380.268C203.7 388.483 205.316 400.186 213.531 406.408C221.746 412.629 233.449 411.013 239.671 402.798L255.185 382.313C261.406 374.098 259.79 362.395 251.575 356.173C243.359 349.952 231.656 351.568 225.435 359.783Z" fill="#FFBBBB"/>
<path d="M380.89 146.433L333.64 119.842C328.6 117.006 322.816 115.772 317.057 116.304L242.451 123.204C233.28 124.052 225.085 129.285 220.458 137.249L167.874 227.757C163.991 234.441 167.039 243.011 174.27 245.742L176.421 246.554C195.696 253.834 217.464 247.639 230.017 231.302L250.164 205.082C250.164 205.082 298.593 261.155 351.913 195.672" fill="#FFBBBB"/>
<path d="M511.945 309.145L487.232 108.394C486.989 106.42 485.972 104.623 484.404 103.399C482.836 102.175 480.847 101.625 478.872 101.867L421.084 108.981C406.075 110.829 395.368 124.543 397.216 139.551L417.06 300.751C418.768 314.628 430.619 324.827 444.26 324.827C445.372 324.827 446.499 324.759 447.63 324.62L505.418 317.506C509.528 316.999 512.451 313.256 511.945 309.145Z" fill="#8D8EA1"/>
<path d="M511.945 309.145L509.232 287.109C508.002 288.914 506.038 290.204 503.7 290.492L443.123 297.949C441.937 298.095 440.756 298.166 439.59 298.166C429.39 298.166 420.149 292.724 415.037 284.326L417.059 300.75C418.767 314.627 430.618 324.826 444.259 324.826C445.371 324.826 446.498 324.758 447.629 324.619L505.417 317.505C509.528 316.999 512.451 313.256 511.945 309.145Z" fill="#65617D"/>
<path d="M90.9179 108.98L33.1299 101.866C31.1529 101.623 29.1659 102.174 27.5979 103.398C26.0299 104.622 25.0129 106.419 24.7699 108.393L0.0569356 309.145C-0.449064 313.256 2.47394 316.999 6.58394 317.505L64.3719 324.619C65.5039 324.758 66.6289 324.826 67.7419 324.826C81.3819 324.826 93.2339 314.626 94.9419 300.75L114.786 139.55C116.634 124.542 105.927 110.828 90.9179 108.98Z" fill="#1BADB4"/>
<path d="M0.0569511 309.145L2.76995 287.109C3.99995 288.914 5.96395 290.204 8.30195 290.492L68.879 297.949C70.065 298.095 71.246 298.166 72.412 298.166C82.612 298.166 91.853 292.724 96.965 284.326L94.943 300.75C93.235 314.627 81.384 324.826 67.743 324.826C66.631 324.826 65.504 324.758 64.373 324.619L6.58495 317.505C2.47295 316.999 -0.449049 313.256 0.0569511 309.145Z" fill="#0E858B"/>
<path d="M464 291.499C472.007 291.499 478.498 285.008 478.498 277.001C478.498 268.994 472.007 262.503 464 262.503C455.993 262.503 449.502 268.994 449.502 277.001C449.502 285.008 455.993 291.499 464 291.499Z" fill="#EBEEF2"/>
<path d="M47.1899 291.499C55.1969 291.499 61.6879 285.008 61.6879 277.001C61.6879 268.994 55.1969 262.503 47.1899 262.503C39.1829 262.503 32.6919 268.994 32.6919 277.001C32.6919 285.008 39.1829 291.499 47.1899 291.499Z" fill="#EBEEF2"/>
</g>
<defs>
<clipPath id="clip0">
<rect width="512.002" height="512.002" fill="white"/>
</clipPath>
</defs>
</svg>
